<?xml version="1.0"?>
<svg width="100" height="125" xmlns="http://www.w3.org/2000/svg" xmlns:svg="http://www.w3.org/2000/svg" enable-background="new 0 0 100 100" version="1.1" xml:space="preserve">
 <g class="layer">
  <title>Layer 1</title>
  <path d="m78.15,39.06c1.09,-2.71 4.14,-10.85 4.81,-18.48c0.57,-6.45 -3.2,-10.19 -7.23,-10.55c-2.14,-0.18 -4.22,0.53 -5.83,2.03c-1.78,1.64 -2.85,4.08 -3.12,7.05l-0.06,0.7c-0.1,1.09 -0.21,2.32 -0.29,3.67c-2.75,-3.44 -9.03,-10.07 -14.61,-7.43c-2.74,1.3 -4.11,3.46 -3.98,6.25c0.27,5.3 6.84,13.42 15.57,17.34c-1.84,0.9 -3.79,2.21 -5.33,4.1c-5.03,-3.14 -10.88,-4.8 -16.97,-4.8c-5.08,0 -9.88,1.17 -14.11,3.23c-1.22,-3.2 -4.24,-5.42 -7.69,-5.53c-2.27,-0.09 -4.45,0.75 -6.12,2.33c-1.66,1.58 -2.61,3.72 -2.69,6.03c-0.1,3.25 1.63,6.25 4.38,7.81c-2.77,4.3 -4.37,9.33 -4.37,14.7c0,8.71 4.18,16.83 11.46,22.29c0.18,0.13 0.39,0.2 0.6,0.2l21.04,0c1.84,0 3.42,-1.05 4.24,-2.58c0.04,0 0.08,0 0.11,0c4.95,0 8.2,-1.56 9.72,-2.52l0.42,1.22c0.79,2.32 2.95,3.88 5.37,3.88l14.12,0c2.67,0 4.84,-2.2 4.84,-4.9c0,-4.92 -3.95,-8.91 -8.8,-8.91l-3.36,0c0.58,-1.69 0.99,-3.43 1.22,-5.19c16.18,-1.69 17.99,-10.62 18.01,-14.42c0.05,-11.25 -8.42,-16.16 -11.35,-17.52zm-28.31,-16.86c-0.1,-1.97 0.83,-3.39 2.83,-4.34c4.74,-2.25 11.37,5.47 13.53,8.63c0.04,0.06 0.1,0.1 0.15,0.15c0.02,3.32 0.4,7.17 1.66,11.38c-0.52,0.12 -1.19,0.3 -1.95,0.55c-7.93,-2.87 -15.95,-10.95 -16.22,-16.37zm-37.34,22.86c0.06,-1.78 0.79,-3.42 2.07,-4.64c1.27,-1.21 2.94,-1.82 4.68,-1.79c2.72,0.09 5.08,1.91 5.95,4.48c-3.62,2.07 -6.73,4.81 -9.16,8.05c-2.21,-1.17 -3.62,-3.53 -3.54,-6.1zm58,24.03c-0.48,0.04 -0.86,0.42 -0.91,0.9c-0.23,2.33 -0.8,4.62 -1.68,6.82c-0.13,0.31 -0.09,0.66 0.09,0.94c0.19,0.27 0.5,0.44 0.83,0.44l4.8,0c3.75,0 6.8,3.1 6.8,6.91c0,1.6 -1.27,2.9 -2.84,2.9l-14.12,0c-1.56,0 -2.96,-1.01 -3.48,-2.52l-2.82,-8.29c-0.18,-0.52 -0.74,-0.8 -1.27,-0.62c-0.52,0.18 -0.8,0.75 -0.62,1.27l1.74,5.1c-0.97,0.68 -3.86,2.37 -8.59,2.47c0,-0.11 0.03,-0.21 0.03,-0.31c0,-4.39 -3.24,-8.18 -7.54,-8.81c-0.56,-0.09 -1.05,0.3 -1.13,0.84c-0.08,0.55 0.3,1.06 0.84,1.14c3.32,0.49 5.83,3.42 5.83,6.83c0,1.6 -1.28,2.9 -2.85,2.9l-20.7,0c-6.62,-5.07 -10.4,-12.52 -10.4,-20.49c0,-14.65 12.83,-26.57 28.6,-26.57c6.02,0 11.78,1.72 16.66,4.97c0.45,0.31 1.06,0.19 1.38,-0.26c3.35,-4.83 10.22,-5.86 10.29,-5.87c0.29,-0.05 0.55,-0.22 0.71,-0.47c0.16,-0.25 0.19,-0.56 0.1,-0.84c-2.53,-7.62 -1.93,-14.16 -1.54,-18.48l0.06,-0.7c0.22,-2.47 1.08,-4.46 2.48,-5.76c1.2,-1.11 2.72,-1.65 4.3,-1.51c2.95,0.26 5.9,3 5.42,8.39c-0.78,8.81 -5,18.7 -5.04,18.79c-0.11,0.26 -0.11,0.55 0,0.8c0.11,0.26 0.33,0.45 0.59,0.55c0.45,0.15 11.04,3.95 10.98,16.02c-0.05,9.97 -11.9,12.08 -17,12.52z" fill="#ffffff" id="svg_1"/>
 </g>
</svg>